# xmcd
#
# Track frame offsets:
#	150
#	15202
#	31560
#	45222
#	57180
#	74107
#	91547
#	111315
#	129480
#	145127
#	163167
#	175455
#	186242
#	197902
#	211280
#	227300
#	240302
#	263297
#	274960
#	290757
#	308725
#	329697
#
# Disc length: 4565 seconds
#
# Revision: 3
# Processed by: cddbd v1.5.2PL0 Copyright (c) Steve Scherf et al.
# Submitted via: audiograbber 1.83.01
#
DISCID=3111d316
DTITLE=MS® - Las Mas Buscadas Español
DYEAR=2006
DGENRE=Ballad
TTITLE0=Jeannette - Por Que Te Vas
TTITLE1=Chiquitete - Esta Cobardia
TTITLE2=Nydia Caro - Cuentale
TTITLE3=Erick - Antigua
TTITLE4=Massiel - Rosas En El Mar
TTITLE5=Aldo Monges - Brindo Por Tu Cumpleaños
TTITLE6=Elsa Baeza - Credo
TTITLE7=Elio Roca - Contigo Y Aqui
TTITLE8=Sola - Soy Rebelde
TTITLE9=Hector Meneses - Vete De Aqui
TTITLE10=Monica Ygual - Cuando Me Vaya De Tu Lado
TTITLE11=Enrique Linares - Embrujo
TTITLE12=Piccolinos - Yo Tu Y Las Rosas
TTITLE13=Clara Boone - Pintando Corazones
TTITLE14=Chavita - Huesito De Chavacano
TTITLE15=Montiel - Mirame A Los Ojos
TTITLE16=Carlos Mejia Godoy - Son Tus Perjumenes Mujer
TTITLE17=Barbara Y Dick - El Funeral Del Labrador
TTITLE18=Sergio Y Estibaliz - La Llamada
TTITLE19=Sergio Denis - Nunca Supe Mas De Ti
TTITLE20=Luis Aguile - Ven A Mi Casa Esta Navidad
TTITLE21=Trigo Limpio - Arena
EXTD=MS®
EXTT0=
EXTT1=
EXTT2=
EXTT3=
EXTT4=
EXTT5=
EXTT6=
EXTT7=
EXTT8=
EXTT9=
EXTT10=
EXTT11=
EXTT12=
EXTT13=
EXTT14=
EXTT15=
EXTT16=
EXTT17=
EXTT18=
EXTT19=
EXTT20=
EXTT21=
PLAYORDER=
